<svg xmlns="http://www.w3.org/2000/svg" xmlns:xlink="http://www.w3.org/1999/xlink" class="icon icon-logo headerTopBar__logoIcon" aria-hidden="false" focusable="false" width="348.2"  height="49" ><defs><symbol id="sprite-logo" viewBox="0 0 348.2 49"><path d="M235.7,15.2c-3.4-4.1-2.8-6.3,1.1-5.8c2.6,0.4,11.2,4.8,19.1,14.4l10.4,12.6c3.9,4.7,5.7,8.3,6.5,12.3h9.4 c-1-5.8-3.2-11-10.1-19.4l-7.3-8.9C254.7,8.1,242.7,0,229.6,0c-10,0-11.6,8.3-3.3,18.4l14.2,17.1c5.1,6.2,9.8,11,11.9,12.6 c0.1,0,0.1,0,0.2,0h14.3c-4.9-3.1-10.9-8.8-15.2-13.8L235.7,15.2z M55.6,1.3L80,48.5h10.1L71.6,14h0.3l35.7,34.8h12.8L70.5,1.3H55.6 z M297.6,0.9l38.7,45.2h-0.3L279.6,1h-11.4l39.7,47.2h11.3l-22.8-25.6h-0.1l32.2,26h19.7l-40-47.6L297.6,0.9z M128.7,1.2l38.6,45.2 H167L110.7,1.2H99.3L139,48.4h11.3l-23.2-25.6h0.3l32.2,26h19.7l-40-47.6L128.7,1.2z M216.1,35.5L200.2,1.1h-9.8l11.8,23.6h-0.3 L170.5,1.1h-13.9l49.3,36.3l9.5,11.2h11.9L216.1,35.5z M51.1,49H61c-0.7-4.5-2.6-8.8-5.6-12.2H44.6C48.5,41.4,50.2,45,51.1,49 M41.6,18.2H29.3c-6-5.5-11.5-8.2-13.5-8.4c-3.9-0.5-4.5,1.7-1.1,5.8l16,19.2c4.3,5,10.3,10.7,15.2,13.8H31.6c-0.1,0-0.1,0-0.2-0.1 c-2.1-1.6-6.8-6.5-11.9-12.6L5.4,18.8C-3,8.6-1.3,0.4,8.6,0.4C20.8,0.4,32,7.4,41.6,18.2"></path></symbol></defs>
        
            <title>Canyon</title>
        
        
        
            <use xlink:href="#sprite-logo"></use>
        
        
    </svg>